<svg xmlns="http://www.w3.org/2000/svg" xmlns:xlink="http://www.w3.org/1999/xlink" width="500" zoomAndPan="magnify" viewBox="0 0 375 374.999991" height="500" preserveAspectRatio="xMidYMid meet" version="1.0"><defs><g/></defs><path stroke-linecap="butt" transform="matrix(0.000000000000002296, -37.499998, 37.499998, 0.000000000000002296, 18.750003, 374.999975)" fill="none" stroke-linejoin="miter" d="M -0.000000656667 -0.0000000871667 L 10 -0.0000000871667 " stroke="#ff922b" stroke-width="1" stroke-opacity="1" stroke-miterlimit="4"/><path stroke-linecap="butt" transform="matrix(-37.499998, -0.000000000000004592, 0.000000000000004592, -37.499998, 374.99998, 356.249977)" fill="none" stroke-linejoin="miter" d="M -0.000000536667 -0.000000623833 L 10 -0.000000623833 " stroke="#ff922b" stroke-width="1" stroke-opacity="1" stroke-miterlimit="4"/><path stroke-linecap="butt" transform="matrix(-37.499998, -0.000000000000004592, 0.000000000000004592, -37.499998, 374.99998, 18.749999)" fill="none" stroke-linejoin="miter" d="M -0.000000536667 -0.0000000328333 L 9.5 -0.0000000328333 " stroke="#ff922b" stroke-width="1" stroke-opacity="1" stroke-miterlimit="4"/><g fill="#ff922b" fill-opacity="1"><g transform="translate(68.386128, 298.907146)"><g><path d="M 24.078125 0 L 24.078125 -203.828125 L 74.40625 -203.828125 L 107.234375 -113.171875 C 109.316406 -107.128906 111.296875 -100.925781 113.171875 -94.5625 C 115.046875 -88.207031 117.023438 -81.90625 119.109375 -75.65625 L 120.359375 -75.65625 C 122.441406 -81.90625 124.367188 -88.207031 126.140625 -94.5625 C 127.910156 -100.925781 129.835938 -107.128906 131.921875 -113.171875 L 164.125 -203.828125 L 214.140625 -203.828125 L 214.140625 0 L 172.25 0 L 172.25 -74.71875 C 172.25 -79.71875 172.457031 -85.238281 172.875 -91.28125 C 173.289062 -97.332031 173.8125 -103.429688 174.4375 -109.578125 C 175.0625 -115.722656 175.6875 -121.765625 176.3125 -127.703125 C 176.945312 -133.640625 177.578125 -139.113281 178.203125 -144.125 L 176.953125 -144.125 L 160.375 -95.65625 L 131.296875 -17.8125 L 105.984375 -17.8125 L 76.90625 -95.65625 L 60.65625 -144.125 L 59.40625 -144.125 C 60.03125 -139.113281 60.65625 -133.640625 61.28125 -127.703125 C 61.90625 -121.765625 62.53125 -115.722656 63.15625 -109.578125 C 63.78125 -103.429688 64.300781 -97.332031 64.71875 -91.28125 C 65.132812 -85.238281 65.34375 -79.71875 65.34375 -74.71875 L 65.34375 0 Z M 24.078125 0 "/></g></g></g><path stroke-linecap="butt" transform="matrix(-0.00000000000003907, 37.245393, -37.499998, -0.000000000000039337, 356.2467, 300.003261)" fill="none" stroke-linejoin="miter" d="M 0.0000173216 0.0000161748 L 1.288872 0.0000161748 " stroke="#ff922b" stroke-width="1" stroke-opacity="1" stroke-miterlimit="4"/><path stroke-linecap="butt" transform="matrix(0.000000000000002298, -37.529316, 37.499998, 0.000000000000002296, 356.245205, 74.995212)" fill="none" stroke-linejoin="miter" d="M -0.0000234983 0.0000236972 L 1.199351 0.0000236972 " stroke="#ff922b" stroke-width="1" stroke-opacity="1" stroke-miterlimit="4"/></svg>